<svg width="1773" height="512" viewBox="0 0 1773 512" fill="none" xmlns="http://www.w3.org/2000/svg">
<g clip-path="url(#clip0_40_12)">
<circle cx="256" cy="256" r="256" fill="#005A9C"/>
<mask id="mask0_40_12" style="mask-type:alpha" maskUnits="userSpaceOnUse" x="0" y="0" width="512" height="512">
<circle cx="256" cy="256" r="256" fill="#2C3E50"/>
</mask>
<g mask="url(#mask0_40_12)">
<path d="M173 128C243.692 128 301 185.308 301 256C301 326.692 243.692 384 173 384C102.308 384 45 326.692 45 256C45 185.308 102.308 128 173 128ZM173.462 167.74C124.462 167.74 84.7403 207.462 84.7402 256.462C84.7402 305.462 124.462 345.184 173.462 345.185C222.462 345.185 262.185 305.462 262.185 256.462C262.184 207.462 222.462 167.74 173.462 167.74Z" fill="white"/>
<path d="M169 128H512V167H169V128Z" fill="white"/>
<path d="M349 128H388V384H349V128Z" fill="white"/>
</g>
</g>
<path d="M545.124 384V129.455H598.941V339.629H708.067V384H545.124ZM829.716 387.729C810.078 387.729 793.175 383.751 779.006 375.797C764.92 367.759 754.065 356.408 746.442 341.741C738.819 326.992 735.007 309.55 735.007 289.415C735.007 269.778 738.819 252.543 746.442 237.711C754.065 222.879 764.795 211.32 778.633 203.034C792.553 194.748 808.877 190.605 827.603 190.605C840.198 190.605 851.923 192.635 862.777 196.695C873.715 200.673 883.244 206.68 891.364 214.717C899.567 222.755 905.947 232.864 910.504 245.044C915.062 257.142 917.34 271.311 917.34 287.551V302.093H756.137V269.281H867.5C867.5 261.657 865.843 254.904 862.529 249.021C859.214 243.138 854.615 238.54 848.732 235.225C842.932 231.828 836.179 230.129 828.473 230.129C820.436 230.129 813.31 231.994 807.095 235.722C800.964 239.368 796.158 244.298 792.678 250.513C789.198 256.644 787.416 263.48 787.333 271.021V302.217C787.333 311.663 789.073 319.825 792.553 326.702C796.116 333.58 801.129 338.883 807.593 342.612C814.056 346.34 821.72 348.205 830.586 348.205C836.469 348.205 841.855 347.376 846.744 345.719C851.633 344.062 855.817 341.576 859.297 338.261C862.777 334.947 865.429 330.887 867.252 326.081L916.222 329.312C913.736 341.079 908.64 351.353 900.934 360.136C893.311 368.837 883.451 375.631 871.353 380.52C859.338 385.326 845.459 387.729 829.716 387.729ZM1022.24 387.107C1007.74 387.107 994.607 383.379 982.841 375.921C971.158 368.381 961.878 357.319 955 342.736C948.206 328.07 944.808 310.089 944.808 288.794C944.808 266.919 948.33 248.731 955.373 234.231C962.416 219.647 971.779 208.751 983.463 201.543C995.229 194.251 1008.11 190.605 1022.12 190.605C1032.81 190.605 1041.71 192.428 1048.84 196.074C1056.05 199.637 1061.85 204.111 1066.24 209.497C1070.71 214.8 1074.11 220.02 1076.43 225.158H1078.05V129.455H1130.87V384H1078.67V353.425H1076.43C1073.95 358.728 1070.42 363.989 1065.87 369.21C1061.39 374.347 1055.55 378.614 1048.34 382.011C1041.22 385.409 1032.52 387.107 1022.24 387.107ZM1039.02 344.973C1047.55 344.973 1054.76 342.653 1060.65 338.013C1066.61 333.29 1071.17 326.702 1074.32 318.251C1077.55 309.799 1079.17 299.897 1079.17 288.545C1079.17 277.194 1077.59 267.333 1074.44 258.964C1071.29 250.596 1066.74 244.133 1060.77 239.575C1054.8 235.018 1047.55 232.739 1039.02 232.739C1030.32 232.739 1022.99 235.101 1017.02 239.824C1011.05 244.547 1006.54 251.093 1003.47 259.462C1000.41 267.83 998.874 277.525 998.874 288.545C998.874 299.649 1000.41 309.468 1003.47 318.002C1006.62 326.454 1011.14 333.083 1017.02 337.888C1022.99 342.612 1030.32 344.973 1039.02 344.973ZM1260.41 459.568C1243.26 459.568 1228.55 457.207 1216.29 452.484C1204.11 447.844 1194.41 441.505 1187.2 433.467C1180 425.43 1175.31 416.398 1173.16 406.372L1222.13 399.785C1223.62 403.596 1225.98 407.159 1229.21 410.474C1232.45 413.788 1236.71 416.44 1242.02 418.428C1247.4 420.5 1253.95 421.536 1261.65 421.536C1273.17 421.536 1282.66 418.718 1290.12 413.084C1297.66 407.532 1301.43 398.21 1301.43 385.119V350.193H1299.19C1296.87 355.496 1293.39 360.509 1288.75 365.232C1284.11 369.955 1278.14 373.808 1270.85 376.791C1263.56 379.774 1254.86 381.266 1244.75 381.266C1230.42 381.266 1217.37 377.951 1205.6 371.322C1193.92 364.611 1184.59 354.378 1177.63 340.623C1170.76 326.785 1167.32 309.302 1167.32 288.173C1167.32 266.546 1170.84 248.483 1177.88 233.982C1184.93 219.482 1194.29 208.627 1205.97 201.418C1217.74 194.21 1230.62 190.605 1244.63 190.605C1255.32 190.605 1264.26 192.428 1271.47 196.074C1278.68 199.637 1284.48 204.111 1288.87 209.497C1293.35 214.8 1296.79 220.02 1299.19 225.158H1301.18V193.091H1353.75V385.864C1353.75 402.105 1349.78 415.694 1341.82 426.631C1333.87 437.569 1322.85 445.772 1308.76 451.241C1294.76 456.792 1278.64 459.568 1260.41 459.568ZM1261.53 341.493C1270.06 341.493 1277.27 339.38 1283.16 335.154C1289.12 330.845 1293.68 324.714 1296.83 316.759C1300.06 308.722 1301.68 299.11 1301.68 287.924C1301.68 276.738 1300.1 267.043 1296.95 258.84C1293.8 250.554 1289.25 244.133 1283.28 239.575C1277.31 235.018 1270.06 232.739 1261.53 232.739C1252.83 232.739 1245.5 235.101 1239.53 239.824C1233.56 244.464 1229.05 250.927 1225.98 259.213C1222.92 267.499 1221.38 277.069 1221.38 287.924C1221.38 298.944 1222.92 308.473 1225.98 316.511C1229.13 324.465 1233.65 330.638 1239.53 335.03C1245.5 339.339 1252.83 341.493 1261.53 341.493ZM1482.89 387.729C1463.25 387.729 1446.35 383.751 1432.18 375.797C1418.09 367.759 1407.24 356.408 1399.62 341.741C1391.99 326.992 1388.18 309.55 1388.18 289.415C1388.18 269.778 1391.99 252.543 1399.62 237.711C1407.24 222.879 1417.97 211.32 1431.81 203.034C1445.73 194.748 1462.05 190.605 1480.78 190.605C1493.37 190.605 1505.1 192.635 1515.95 196.695C1526.89 200.673 1536.42 206.68 1544.54 214.717C1552.74 222.755 1559.12 232.864 1563.68 245.044C1568.24 257.142 1570.51 271.311 1570.51 287.551V302.093H1409.31V269.281H1520.67C1520.67 261.657 1519.02 254.904 1515.7 249.021C1512.39 243.138 1507.79 238.54 1501.91 235.225C1496.11 231.828 1489.35 230.129 1481.65 230.129C1473.61 230.129 1466.48 231.994 1460.27 235.722C1454.14 239.368 1449.33 244.298 1445.85 250.513C1442.37 256.644 1440.59 263.48 1440.51 271.021V302.217C1440.51 311.663 1442.25 319.825 1445.73 326.702C1449.29 333.58 1454.3 338.883 1460.77 342.612C1467.23 346.34 1474.89 348.205 1483.76 348.205C1489.64 348.205 1495.03 347.376 1499.92 345.719C1504.81 344.062 1508.99 341.576 1512.47 338.261C1515.95 334.947 1518.6 330.887 1520.43 326.081L1569.4 329.312C1566.91 341.079 1561.81 351.353 1554.11 360.136C1546.48 368.837 1536.62 375.631 1524.53 380.52C1512.51 385.326 1498.63 387.729 1482.89 387.729ZM1605.07 384V193.091H1656.4V226.401H1658.39C1661.87 214.552 1667.71 205.603 1675.91 199.554C1684.12 193.422 1693.56 190.357 1704.25 190.357C1706.9 190.357 1709.76 190.522 1712.83 190.854C1715.89 191.185 1718.58 191.641 1720.9 192.221V239.202C1718.42 238.457 1714.98 237.794 1710.59 237.214C1706.2 236.634 1702.18 236.344 1698.53 236.344C1690.74 236.344 1683.78 238.042 1677.65 241.44C1671.6 244.754 1666.8 249.394 1663.23 255.36C1659.75 261.326 1658.01 268.203 1658.01 275.992V384H1605.07Z" fill="white"/>
<defs>
<clipPath id="clip0_40_12">
<rect width="512" height="512" fill="white"/>
</clipPath>
</defs>
</svg>
